<svg width="115" height="32" viewBox="0 0 115 32" fill="none" xmlns="http://www.w3.org/2000/svg">
<path d="M0.217392 0.666626H25.1568C29.8303 0.666626 33.6301 4.4737 33.6301 9.19973C33.6301 13.882 29.8303 17.7328 25.1568 17.7328L3.62418 17.6891V27.9288H7.03097V21.1023H10.3941V31.342H0.217392V14.2758L25.1568 14.3196C27.9522 14.3196 30.2234 12.0003 30.2234 9.19973C30.2234 6.35536 27.9522 4.07987 25.1568 4.07987H3.62418V7.49311H25.1568C26.0304 7.53687 26.7729 8.28078 26.7729 9.19973C26.7729 10.1187 26.0741 10.8626 25.0695 10.9064H25.0258H0.217392L0.217392 0.666626ZM65.5142 0.666626H77.3069C76.6518 1.76061 72.2404 9.46229 68.0038 16.8576C65.5142 21.1898 62.7626 26.0471 59.6615 31.342H55.7306C56.08 30.7732 59.9673 23.9029 63.8108 17.2515C66.0383 13.3569 68.5716 8.93717 71.4106 4.07987H67.4797C61.9764 13.5319 58.788 19.1769 53.7651 27.9288C53.4594 27.4037 37.9541 0.710385 37.9978 0.666626H49.7906L55.7306 10.9064L53.7651 14.3196L47.8251 4.07987H43.8942C44.7677 5.48017 52.9353 19.7458 53.7651 21.1023L62.3258 6.22409L65.5142 0.666626ZM98.4902 20.7522L100.98 18.433L115 31.342H99.9315L88.4882 20.8398L106.221 4.07987H101.285L88.4882 16.4638V4.07987H85.0814V27.9288H91.1088L94.865 31.342H81.6746V0.666626H91.895V8.19326L99.9315 0.666626H114.825L93.4674 20.796L101.242 27.9288H106.265L98.4902 20.7522Z" fill="#636AE8"/>
</svg>
