<svg width="46" height="46" viewBox="0 0 46 46" fill="none" xmlns="http://www.w3.org/2000/svg">
<path d="M39.7374 14.158C35.8212 17.8896 30.3714 19.3987 25.1543 20.1533C20.4986 20.8392 15.6376 21.1273 11.4748 22.9382C7.12043 24.8452 4.3818 28.0006 4.60089 32.8846C4.73783 35.8204 6.31254 38.6877 8.53082 40.8965C9.14701 41.3904 9.77689 41.8568 10.4342 42.2821C10.3931 42.1998 10.352 42.1038 10.2835 42.0215C7.64077 38.3859 5.5868 27.9731 19.4169 25.7095C22.1966 25.2568 24.9763 24.7903 27.7423 24.1592C30.1796 23.5968 34.5341 22.2249 35.0133 21.9642C35.4104 21.731 32.4253 25.0921 23.2783 27.7262C8.74991 31.9105 13.2139 43.997 17.6504 45.3826C19.3484 45.7942 21.1285 46 22.9497 46C35.6295 46 45.913 35.7107 45.913 23.0068C45.913 18.4384 44.5848 14.1855 42.2981 10.6185C41.6819 11.963 40.8192 13.1154 39.7374 14.158Z" fill="#636AE8"/>
<path d="M0 23.0069C0 25.5312 0.410794 27.932 1.15022 30.2094C1.42408 27.7125 2.27306 25.3528 3.86146 23.3498C6.73702 19.6869 11.201 17.972 15.8429 17.0528C20.4712 16.1473 25.4007 16.0376 30.1523 14.8852C32.7813 14.2541 35.4515 13.2252 37.5739 11.5377C39.3403 10.1109 40.1619 7.94333 38.327 5.92663C37.6561 5.32299 36.944 4.74679 36.2046 4.22547C37.5465 6.983 36.5059 11.085 25.6198 12.1551C22.8264 12.4432 20.0467 12.7038 17.2944 13.088C16.4865 13.1977 15.4869 13.3486 14.4599 13.527C14.4599 13.527 15.3637 12.402 21.7447 10.9478C34.8627 7.98449 32.4116 2.26364 28.5228 0.685953C26.7427 0.246943 24.8667 0 22.9497 0C10.2698 0.0137191 0 10.303 0 23.0069Z" fill="#636AE8"/>
</svg>
